<svg width="111" height="86" viewBox="0 0 111 86" fill="none" xmlns="http://www.w3.org/2000/svg">
<line y1="-0.5" x2="7.42114" y2="-0.5" transform="matrix(0.143503 -0.98965 0.989626 0.143667 10.6494 30.7865)" stroke="#D9D9D9"/>
<ellipse cx="59.6366" cy="37.2945" rx="38.3377" ry="37.2945" fill="#D9D9D9"/>
<path d="M110.225 76.1874C112.886 83.6462 64.4312 87.3757 40.471 84.7118C9.58704 82.0479 -4.26022 29.8356 8.51964 29.8356C19.7013 29.3028 27.6918 69.2612 49.523 70.3268C80.9386 73.5235 108.094 66.5973 110.225 76.1874Z" fill="#D9D9D9"/>
<line y1="-0.5" x2="6.82219" y2="-0.5" transform="matrix(-0.624473 -0.781046 0.780691 -0.624917 6.38965 31.9668)" stroke="#D9D9D9"/>
<path d="M1.59766 25.0079C2.20386 25.0079 2.69531 25.4998 2.69531 26.1066C2.69515 26.7132 2.20376 27.2042 1.59766 27.2042C0.991652 27.2041 0.500161 26.7131 0.5 26.1066C0.5 25.4999 0.991553 25.0081 1.59766 25.0079Z" fill="#F3F3F3" stroke="#D9D9D9"/>
<path d="M11.1821 21.8112C11.7883 21.8112 12.2798 22.3031 12.2798 22.9098C12.2796 23.5164 11.7882 24.0075 11.1821 24.0075C10.5761 24.0073 10.0846 23.5163 10.0845 22.9098C10.0845 22.3031 10.576 21.8113 11.1821 21.8112Z" fill="#F3F3F3" stroke="#D9D9D9"/>
<path d="M58.3796 38.0032C55.9091 44.7535 67.6234 41.5568 68.6883 40.4913C69.9593 39.2195 69.2577 32.1147 68.6883 29.8357C68.1558 27.7046 62.2987 26.639 60.1688 26.1063C58.7882 25.7609 50.5844 28.4944 48.4545 29.9578C46.3246 31.4213 45.2597 34.0979 45.2597 38.0032C45.2597 42.5717 46.437 49.4407 48.4545 50.94C49.7352 51.7438 58.3796 55.4091 64.005 54.5768M64.485 54.5768C66.6075 53.647 69.9338 52.2775 72.4156 50.94C74.8974 49.6025 76.8991 47.4816 77.7403 46.8846C78.9784 46.0059 82.5326 40.6712 82.5326 39.9585C82.5326 38.895 82.5541 33.8577 82.5326 33.0324C82.4916 31.4597 81.9847 29.3384 80.4026 25.5735C78.8205 21.8086 78.4273 21.3112 74.5455 18.1146C71.3106 15.4507 68.1558 14.9179 64.005 13.8524C63.4952 13.7215 60.9595 13.3196 55.1023 13.8524C48.2154 14.4788 44.6007 17.2507 43.5633 18.1146C42.5258 18.9784 37.8052 23.1104 36.7402 25.5735C35.6753 28.0366 34.9976 34.1081 34.9027 35.1635C34.724 37.1499 34.6104 42.7615 34.6104 43.6879C34.6104 45.8191 35.6753 50.0813 36.7402 52.2124" stroke="white" stroke-width="2" stroke-linecap="round"/>
</svg>
