<svg width="69" height="76" viewBox="0 0 69 76" fill="none" xmlns="http://www.w3.org/2000/svg">
<path d="M6.59301 9.71257L9.28488 14.3591L6.83642 21.8341L14.7488 25.6726" stroke="black"/>
<path d="M24.1099 0.765284L21.9513 8.90445L16.6838 16.1774L20.4194 23.9982" stroke="black"/>
<path d="M43.4768 8.20692L33.9018 10.9247L27.9359 15.7733L24.6317 23.7629" stroke="black"/>
<path d="M67.9434 38.0239C68.1563 48.6236 60.5274 57.2163 44.4931 57.2163C28.4588 57.2163 25.714 48.6236 25.5012 38.0239C25.2883 27.4243 27.6881 18.8315 43.7224 18.8315C59.7567 18.8315 67.7306 27.4243 67.9434 38.0239Z" fill="#F3F3F3"/>
<path d="M27.1628 38.226C27.3241 46.2594 31.4117 52.7718 23.0966 52.7718C14.7815 52.7718 7.91002 46.2594 7.74873 38.226C7.58745 30.1926 14.1974 23.6802 22.5125 23.6802C30.8276 23.6802 27.0015 30.1926 27.1628 38.226Z" fill="#F3F3F3"/>
<path d="M7.45442 66.7116L9.95972 62.065L7.21111 54.5901L14.9694 50.7516" stroke="black"/>
<path d="M25.3306 75.6589L22.8452 67.5197L17.2856 60.2468L20.7072 52.426" stroke="black"/>
<path d="M44.3986 68.2172L34.7145 65.4994L28.554 60.6508L24.9289 52.6613" stroke="black"/>
<path d="M1.34982 43.0746L2.85434 43.5914L3.96286 43.7981L5.00226 43.7981L5.97255 43.5914L6.98398 43.2766L7.62549 42.8726L8.71226 43.0746L9.16563 44.0847L9.39231 44.5898L9.61493 44.8928L9.83959 45.2969L10.0642 45.7009L9.85581 46.105L9.64738 46.509L9.22213 46.899L7.61051 47.5192L6.37622 47.5192L5.20067 47.2091L4.02096 46.6923L3.09488 45.8654L1.96354 44.5217L1.34982 43.0746Z" fill="#F3F3F3"/>
<path d="M1.16326 33.7815L2.64702 33.2647L3.74724 33.058L4.78664 33.058L5.76523 33.2647L6.7893 33.5795L7.44704 33.9835L8.52569 33.7815L8.9385 32.7714L9.1449 32.2663L9.35536 31.9633L9.56379 31.5592L9.77222 31.1552L9.54757 30.7511L9.32291 30.3471L8.882 29.9571L7.24548 29.3369L6.01119 29.3369L4.84809 29.647L3.68913 30.1638L2.79626 30.9907L1.71887 32.3344L1.16326 33.7815Z" fill="#F3F3F3"/>
</svg>
